<?xml version="1.0" encoding="UTF-8"?>
<svg xmlns="http://www.w3.org/2000/svg" xmlns:xlink="http://www.w3.org/1999/xlink" width="119px" height="50px" viewBox="0 0 119 50" version="1.1">
<g id="surface1">
<path style=" stroke:none;fill-rule:nonzero;fill:rgb(7.45098%,64.705882%,21.960784%);fill-opacity:1;" d="M 86.800781 15.949219 C 79.699219 15.949219 72.601562 19.050781 72.601562 26.050781 C 72.601562 29.351562 74.199219 31.949219 77.101562 33.75 C 79.601562 35.25 82.898438 36.050781 86.601562 36.050781 C 88.898438 36.050781 91.199219 35.75 93.601562 34.949219 L 92.300781 31.648438 C 90.699219 32.050781 89.398438 32.148438 88.199219 32.148438 C 82.5 32.148438 79.199219 29.949219 79.199219 25.949219 C 79.199219 22.050781 82.699219 19.648438 88.199219 19.648438 C 89.300781 19.648438 90.300781 19.75 91.699219 20.050781 L 93.699219 16.949219 C 91.199219 16.050781 89 15.949219 86.800781 15.949219 M 57.601562 15.949219 C 51.398438 15.949219 44.699219 19.050781 44.699219 25.949219 C 44.699219 32.851562 51.398438 36.050781 57.601562 36.050781 C 63.800781 36.050781 70.5 32.851562 70.5 25.949219 C 70.5 19.148438 63.800781 15.949219 57.601562 15.949219 M 57.601562 32.550781 C 53.898438 32.550781 51.300781 29.851562 51.300781 26.050781 C 51.300781 22.148438 53.800781 19.449219 57.601562 19.449219 C 61.398438 19.449219 63.898438 22.050781 63.898438 26.050781 C 64 29.851562 61.398438 32.550781 57.601562 32.550781 M 105.199219 15.949219 C 102.398438 15.949219 99.601562 16.351562 96.699219 17.148438 L 96.699219 35.75 L 103.101562 35.75 L 103.101562 19.75 C 103.800781 19.648438 104.5 19.550781 105.101562 19.550781 C 106.5 19.550781 111.300781 19.851562 111.300781 24.050781 C 111.300781 27.050781 108.5 28.449219 105.800781 28.449219 C 105.699219 28.449219 105.398438 28.449219 105.199219 28.449219 L 103.898438 31.148438 C 105.101562 31.25 105.800781 31.351562 106.398438 31.351562 C 112.101562 31.351562 117.800781 29.050781 117.800781 23.75 C 117.800781 19.050781 112.601562 15.949219 105.199219 15.949219 "/>
<path style=" stroke:none;fill-rule:nonzero;fill:rgb(7.45098%,64.705882%,21.960784%);fill-opacity:1;" d="M 34.898438 32.550781 C 36.699219 30.949219 40.300781 28.050781 39 21.050781 C 39 20.949219 38.898438 20.949219 38.898438 21.050781 C 38.699219 23.75 37.300781 25.550781 36.601562 27.75 C 36.601562 27.851562 36.5 27.75 36.5 27.75 C 36.5 25.648438 34.800781 24.050781 34.5 22.75 C 34.5 22.648438 34.398438 22.648438 34.398438 22.75 C 33.699219 26.949219 35.699219 29.75 34.898438 32.550781 C 34.699219 32.550781 34.800781 32.648438 34.898438 32.550781 "/>
<path style=" stroke:none;fill-rule:nonzero;fill:rgb(7.45098%,64.705882%,21.960784%);fill-opacity:1;" d="M 37.898438 31.148438 C 35.699219 33.75 35.398438 33.550781 33.101562 35.851562 C 33.101562 35.851562 33 35.851562 33 35.75 C 34.601562 33.148438 33.699219 31.148438 33.199219 30.25 C 33.199219 30.148438 33.101562 30.25 33.101562 30.25 C 33 32.949219 31 38.75 21.898438 42.25 C 21.601562 42.351562 21.398438 42.550781 21.398438 42.75 C 21.398438 42.75 21.398438 42.949219 21.898438 42.949219 C 24.300781 42.851562 34.199219 40.75 38 31.25 C 38 31.148438 38 31.148438 37.898438 31.148438 "/>
<path style=" stroke:none;fill-rule:nonzero;fill:rgb(7.45098%,64.705882%,21.960784%);fill-opacity:1;" d="M 19.898438 13.148438 C 19 14.851562 17.898438 18.050781 17.699219 19.050781 L 16.800781 19.050781 C 16.800781 19.050781 16.699219 19.050781 16.699219 19.148438 C 16.800781 20.25 19 21.851562 19.800781 22.449219 C 19.800781 22.449219 19.898438 22.449219 19.898438 22.351562 L 20 13.148438 C 20 13.148438 19.898438 13.050781 19.898438 13.148438 "/>
<path style=" stroke:none;fill-rule:nonzero;fill:rgb(7.45098%,64.705882%,21.960784%);fill-opacity:1;" d="M 20.398438 13.148438 C 21.300781 14.851562 22.398438 18.050781 22.601562 19.050781 L 23.5 19.050781 C 23.5 19.050781 23.601562 19.050781 23.601562 19.148438 C 23.5 20.25 21.300781 21.851562 20.5 22.449219 C 20.5 22.449219 20.398438 22.449219 20.398438 22.351562 L 20.300781 13.148438 C 20.300781 13.148438 20.398438 13.050781 20.398438 13.148438 "/>
<path style=" stroke:none;fill-rule:nonzero;fill:rgb(7.45098%,64.705882%,21.960784%);fill-opacity:1;" d="M 8.601562 21.75 C 9.898438 23.148438 12.601562 25.148438 13.5 25.648438 L 13.199219 26.550781 L 13.199219 26.648438 C 14.300781 26.949219 16.5 25.351562 17.300781 24.648438 L 17.300781 24.550781 L 8.601562 21.550781 C 8.601562 21.550781 8.601562 21.648438 8.601562 21.75 "/>
<path style=" stroke:none;fill-rule:nonzero;fill:rgb(7.45098%,64.705882%,21.960784%);fill-opacity:1;" d="M 8.800781 21.25 C 10.699219 20.851562 14.101562 20.851562 15.101562 20.949219 L 15.398438 20.050781 C 15.398438 20.050781 15.5 19.949219 15.5 20.050781 C 16.5 20.449219 17.398438 23.050781 17.699219 24.050781 C 17.699219 24.148438 17.699219 24.148438 17.601562 24.148438 L 8.800781 21.449219 C 8.699219 21.351562 8.699219 21.25 8.800781 21.25 "/>
<path style=" stroke:none;fill-rule:nonzero;fill:rgb(7.45098%,64.705882%,21.960784%);fill-opacity:1;" d="M 13.300781 35.148438 C 15 34.351562 17.800781 32.449219 18.601562 31.75 L 19.300781 32.25 L 19.398438 32.25 C 20 31.25 19.199219 28.648438 18.800781 27.75 C 18.800781 27.648438 18.699219 27.648438 18.699219 27.75 L 13.300781 35.148438 C 13.199219 35.050781 13.199219 35.148438 13.300781 35.148438 "/>
<path style=" stroke:none;fill-rule:nonzero;fill:rgb(7.45098%,64.705882%,21.960784%);fill-opacity:1;" d="M 12.898438 34.851562 C 13.101562 32.949219 14.101562 29.75 14.5 28.75 L 13.800781 28.25 L 13.800781 28.148438 C 14.5 27.25 17.300781 27.25 18.300781 27.25 C 18.398438 27.25 18.398438 27.351562 18.398438 27.351562 L 13 34.851562 C 13 34.949219 12.898438 34.851562 12.898438 34.851562 "/>
<path style=" stroke:none;fill-rule:nonzero;fill:rgb(7.45098%,64.705882%,21.960784%);fill-opacity:1;" d="M 27.5 34.851562 C 27.300781 32.949219 26.300781 29.75 25.898438 28.75 L 26.601562 28.25 L 26.601562 28.148438 C 25.800781 27.25 23.101562 27.25 22.101562 27.25 C 22 27.25 22 27.351562 22 27.351562 L 27.300781 34.851562 C 27.398438 34.949219 27.5 34.851562 27.5 34.851562 "/>
<path style=" stroke:none;fill-rule:nonzero;fill:rgb(7.45098%,64.705882%,21.960784%);fill-opacity:1;" d="M 27 35.148438 C 25.300781 34.351562 22.5 32.449219 21.699219 31.75 L 21 32.25 L 20.898438 32.25 C 20.300781 31.25 21.101562 28.648438 21.5 27.75 C 21.5 27.648438 21.601562 27.648438 21.601562 27.75 L 27.101562 35.148438 C 27.199219 35.050781 27.101562 35.148438 27 35.148438 "/>
<path style=" stroke:none;fill-rule:nonzero;fill:rgb(7.45098%,64.705882%,21.960784%);fill-opacity:1;" d="M 31.601562 21.25 C 29.699219 20.851562 26.300781 20.851562 25.300781 20.949219 L 25 20.050781 C 25 20.050781 24.898438 19.949219 24.898438 20.050781 C 23.898438 20.449219 23 23.050781 22.699219 24.050781 C 22.699219 24.148438 22.699219 24.148438 22.800781 24.148438 L 31.601562 21.449219 C 31.601562 21.351562 31.601562 21.25 31.601562 21.25 "/>
<path style=" stroke:none;fill-rule:nonzero;fill:rgb(7.45098%,64.705882%,21.960784%);fill-opacity:1;" d="M 31.699219 21.75 C 30.398438 23.148438 27.699219 25.148438 26.800781 25.648438 L 27.101562 26.550781 L 27.101562 26.648438 C 26 26.949219 23.800781 25.351562 23 24.648438 L 23 24.550781 L 31.699219 21.550781 C 31.699219 21.550781 31.800781 21.648438 31.699219 21.75 "/>
<path style=" stroke:none;fill-rule:nonzero;fill:rgb(7.45098%,64.705882%,21.960784%);fill-opacity:1;" d="M 32.101562 11.851562 C 31.5 11.351562 30.699219 11.050781 29.898438 10.949219 C 29.800781 10.949219 29.800781 10.949219 29.699219 10.851562 C 28.199219 10.050781 26.601562 9.351562 25 9.050781 C 25 9.050781 24.898438 9.050781 24.898438 9.148438 C 24.898438 9.148438 24.898438 9.25 25 9.25 C 26.699219 9.648438 28.5 10.449219 29.5 11.351562 C 29.601562 11.449219 29.601562 11.449219 29.699219 11.550781 C 30 12.25 30.300781 12.851562 30.898438 13.351562 C 31.398438 13.851562 32.199219 13.949219 32.601562 13.550781 C 32.800781 13.050781 32.699219 12.351562 32.101562 11.851562 "/>
<path style=" stroke:none;fill-rule:nonzero;fill:rgb(7.45098%,64.705882%,21.960784%);fill-opacity:1;" d="M 35.5 17.949219 L 33.800781 15.851562 C 32.5 14.25 32 14.75 31 14.75 C 30.800781 14.75 30.699219 14.75 30.5 14.550781 C 28.800781 13.148438 26.800781 11.851562 24.300781 11.351562 L 24.199219 11.351562 L 24.199219 11.449219 C 24.199219 11.449219 24.300781 11.449219 24.398438 11.550781 C 26.5 12.148438 28.300781 13.148438 29.800781 14.75 C 32.398438 17.949219 34.101562 17.550781 35.300781 18.148438 C 35.5 18.148438 35.601562 18.050781 35.5 17.949219 "/>
<path style=" stroke:none;fill-rule:nonzero;fill:rgb(7.45098%,64.705882%,21.960784%);fill-opacity:1;" d="M 36.199219 17.75 C 36 16.449219 36.300781 14.148438 34.601562 12.25 C 34.5 12.148438 34.398438 12.050781 34.300781 11.949219 C 32 9.449219 28.898438 7.648438 25.300781 6.851562 C 25 6.75 24.699219 6.75 24.398438 6.648438 L 24.300781 6.648438 L 24.300781 6.75 C 24.601562 6.851562 24.898438 6.851562 25.199219 6.949219 C 28.5 7.75 31.300781 9.25 33.601562 11.949219 C 33.699219 12.148438 33.800781 12.351562 33.699219 12.449219 C 33.398438 13.148438 33.199219 13.648438 33.898438 14.648438 C 34.101562 14.949219 35.398438 16.949219 36 17.648438 C 36.101562 17.851562 36.199219 17.75 36.199219 17.75 "/>
<path style=" stroke:none;fill-rule:nonzero;fill:rgb(7.45098%,64.705882%,21.960784%);fill-opacity:1;" d="M 36.699219 21.050781 C 36.699219 21.148438 36.601562 21.148438 36.699219 21.050781 C 36.398438 20.648438 36.101562 19.949219 35.5 19.351562 C 34.699219 18.648438 33.898438 18.550781 33.300781 17.949219 C 33.199219 17.949219 33.199219 17.949219 33.199219 18.050781 C 34 21.75 36.300781 21.949219 36.601562 24.050781 C 36.601562 24.148438 36.699219 24.148438 36.699219 24.050781 C 37.300781 22.148438 40.101562 19.148438 36.601562 14.75 C 36.601562 14.648438 36.5 14.75 36.5 14.851562 C 37.300781 17.148438 36.601562 19.25 36.699219 21.050781 "/>
<path style=" stroke:none;fill-rule:nonzero;fill:rgb(7.45098%,64.705882%,21.960784%);fill-opacity:1;" d="M 5.5 32.550781 C 3.601562 31.050781 0 28.050781 1.300781 21.050781 C 1.300781 20.949219 1.398438 20.949219 1.398438 21.050781 C 1.601562 23.75 3 25.550781 3.699219 27.75 C 3.699219 27.851562 3.800781 27.75 3.800781 27.75 C 3.800781 25.648438 5.5 24.050781 5.800781 22.75 C 5.800781 22.648438 5.898438 22.648438 5.898438 22.75 C 6.601562 26.949219 4.601562 29.75 5.398438 32.550781 C 5.601562 32.550781 5.5 32.648438 5.5 32.550781 "/>
<path style=" stroke:none;fill-rule:nonzero;fill:rgb(7.45098%,64.705882%,21.960784%);fill-opacity:1;" d="M 2.398438 31.148438 C 4.601562 33.75 4.898438 33.550781 7.199219 35.851562 C 7.199219 35.851562 7.300781 35.851562 7.300781 35.75 C 5.699219 33.148438 6.601562 31.148438 7.101562 30.25 C 7.101562 30.148438 7.199219 30.25 7.199219 30.25 C 7.300781 32.851562 9.300781 38.648438 18.398438 42.148438 C 18.699219 42.25 18.898438 42.449219 18.898438 42.648438 C 18.898438 42.648438 18.898438 42.851562 18.398438 42.851562 C 16 42.851562 6.101562 40.75 2.300781 31.25 C 2.300781 31.148438 2.398438 31.148438 2.398438 31.148438 "/>
<path style=" stroke:none;fill-rule:nonzero;fill:rgb(7.45098%,64.705882%,21.960784%);fill-opacity:1;" d="M 8.300781 11.851562 C 8.898438 11.351562 9.699219 11.050781 10.5 10.949219 C 10.601562 10.949219 10.601562 10.949219 10.699219 10.851562 C 12.199219 10.050781 13.800781 9.351562 15.398438 9.050781 C 15.398438 9.050781 15.5 9.050781 15.5 9.148438 C 15.5 9.148438 15.5 9.25 15.398438 9.25 C 13.699219 9.648438 12 10.449219 11 11.25 C 10.898438 11.351562 10.898438 11.351562 10.800781 11.449219 C 10.5 12.148438 10.199219 12.75 9.601562 13.25 C 9.101562 13.75 8.300781 13.851562 7.898438 13.449219 C 7.601562 13.050781 7.601562 12.351562 8.300781 11.851562 "/>
<path style=" stroke:none;fill-rule:nonzero;fill:rgb(7.45098%,64.705882%,21.960784%);fill-opacity:1;" d="M 4.800781 17.949219 L 6.5 15.851562 C 7.800781 14.25 8.300781 14.75 9.300781 14.75 C 9.5 14.75 9.601562 14.75 9.800781 14.550781 C 11.5 13.148438 13.5 11.851562 16 11.351562 L 16.101562 11.351562 L 16.101562 11.449219 C 16.101562 11.449219 16 11.449219 15.898438 11.550781 C 13.800781 12.148438 12 13.148438 10.5 14.75 C 7.898438 17.949219 6.199219 17.550781 5 18.148438 C 4.800781 18.148438 4.800781 18.050781 4.800781 17.949219 "/>
<path style=" stroke:none;fill-rule:nonzero;fill:rgb(7.45098%,64.705882%,21.960784%);fill-opacity:1;" d="M 4.199219 17.75 C 4.398438 16.449219 4.101562 14.148438 5.800781 12.25 C 5.898438 12.148438 6 12.050781 6.101562 11.949219 C 8.398438 9.449219 11.5 7.648438 15.101562 6.851562 C 15.398438 6.75 15.699219 6.75 16 6.648438 L 16.101562 6.648438 L 16.101562 6.75 C 15.800781 6.851562 15.5 6.851562 15.199219 6.949219 C 11.898438 7.75 9.101562 9.25 6.800781 11.949219 C 6.699219 12.148438 6.601562 12.351562 6.699219 12.449219 C 7 13.148438 7.199219 13.648438 6.5 14.648438 C 6.300781 14.949219 5 16.949219 4.398438 17.648438 C 4.199219 17.851562 4.199219 17.75 4.199219 17.75 "/>
<path style=" stroke:none;fill-rule:nonzero;fill:rgb(7.45098%,64.705882%,21.960784%);fill-opacity:1;" d="M 3.800781 14.851562 C 3.800781 14.75 3.699219 14.75 3.699219 14.75 C 0.199219 19.25 3 22.148438 3.601562 24.050781 C 3.601562 24.148438 3.699219 24.148438 3.699219 24.050781 C 4 21.949219 6.398438 21.75 7.101562 18.050781 C 7.101562 17.949219 7 17.949219 7 17.949219 C 6.398438 18.550781 5.5 18.550781 4.800781 19.351562 C 4.199219 19.949219 3.898438 20.648438 3.699219 21.050781 C 3.699219 21.148438 3.601562 21.050781 3.601562 21.050781 C 3.699219 19.25 3 17.148438 3.800781 14.851562 "/>
</g>
</svg>
